<svg width="512" height="512" viewBox="0 0 512 512" xmlns="http://www.w3.org/2000/svg">
  <rect width="512" height="512" rx="110" fill="#12121E"/>
  <circle cx="256" cy="256" r="168" fill="none" stroke="#252540" stroke-width="22"/>
  <circle cx="256" cy="256" r="168" fill="none" stroke="#8B9ADF" stroke-width="22"
    stroke-dasharray="792 264" stroke-dashoffset="198"
    stroke-linecap="round" transform="rotate(-90 256 256)"/>

  <g transform="translate(358, 110)">
    <line x1="0" y1="-12" x2="0" y2="12" stroke="#8B9ADF" stroke-width="3.5" stroke-linecap="round" opacity="0.7"/>
    <line x1="-12" y1="0" x2="12" y2="0" stroke="#8B9ADF" stroke-width="3.5" stroke-linecap="round" opacity="0.7"/>
    <line x1="-8" y1="-8" x2="8" y2="8" stroke="#8B9ADF" stroke-width="2" stroke-linecap="round" opacity="0.4"/>
    <line x1="8" y1="-8" x2="-8" y2="8" stroke="#8B9ADF" stroke-width="2" stroke-linecap="round" opacity="0.4"/>
  </g>

  <g transform="translate(148, 370)">
    <line x1="0" y1="-7" x2="0" y2="7" stroke="#8B9ADF" stroke-width="2.5" stroke-linecap="round" opacity="0.45"/>
    <line x1="-7" y1="0" x2="7" y2="0" stroke="#8B9ADF" stroke-width="2.5" stroke-linecap="round" opacity="0.45"/>
  </g>

  <circle cx="390" cy="340" r="5" fill="#8B9ADF" opacity="0.3"/>
  <circle cx="122" cy="190" r="4" fill="#8B9ADF" opacity="0.25"/>

  <ellipse cx="224" cy="238" rx="10" ry="12" fill="#8B9ADF" opacity="0.9"/>
  <ellipse cx="288" cy="238" rx="10" ry="12" fill="#8B9ADF" opacity="0.9"/>
  <circle cx="229" cy="233" r="4" fill="#12121E"/>
  <circle cx="293" cy="233" r="4" fill="#12121E"/>
  <path d="M220 276 Q256 308 292 276" fill="none" stroke="#8B9ADF" stroke-width="8" stroke-linecap="round" opacity="0.9"/>
  <ellipse cx="200" cy="272" rx="20" ry="12" fill="#E8A0BF" opacity="0.28"/>
  <ellipse cx="312" cy="272" rx="20" ry="12" fill="#E8A0BF" opacity="0.28"/>
</svg>
